<svg width="670" height="670" viewBox="0 0 670 670" fill="none" xmlns="http://www.w3.org/2000/svg">
<rect x="232" y="353" width="5" height="130" fill="white"/>
<rect x="242" y="353" width="5" height="130" fill="white"/>
<rect x="252" y="353" width="5" height="130" fill="white"/>
<rect x="261" y="353" width="5" height="130" fill="white"/>
<rect x="271" y="353" width="5" height="130" fill="white"/>
<rect x="281" y="353" width="5" height="130" fill="white"/>
<rect x="291" y="353" width="5" height="130" fill="white"/>
<rect x="301" y="353" width="5" height="130" fill="white"/>
<rect x="310" y="353" width="5" height="130" fill="white"/>
<rect x="320" y="353" width="5" height="130" fill="white"/>
<rect x="330" y="353" width="5" height="130" fill="white"/>
<rect x="340" y="353" width="5" height="130" fill="white"/>
<rect x="350" y="353" width="5" height="130" fill="white"/>
<rect x="360" y="353" width="4" height="130" fill="white"/>
<rect x="369" y="353" width="5" height="130" fill="white"/>
<rect x="379" y="353" width="5" height="130" fill="white"/>
<rect x="389" y="353" width="5" height="130" fill="white"/>
<rect x="399" y="353" width="5" height="130" fill="white"/>
<rect x="409" y="353" width="4" height="130" fill="white"/>
<rect x="418" y="353" width="5" height="130" fill="white"/>
<rect x="428" y="353" width="5" height="130" fill="white"/>
<rect x="237" y="353" width="5" height="130" fill="black"/>
<rect x="247" y="353" width="5" height="130" fill="black"/>
<rect x="257" y="353" width="4" height="130" fill="black"/>
<rect x="266" y="353" width="5" height="130" fill="black"/>
<rect x="276" y="353" width="5" height="130" fill="black"/>
<rect x="286" y="353" width="5" height="130" fill="black"/>
<rect x="296" y="353" width="5" height="130" fill="black"/>
<rect x="306" y="353" width="4" height="130" fill="black"/>
<rect x="315" y="353" width="5" height="130" fill="black"/>
<rect x="325" y="353" width="5" height="130" fill="black"/>
<rect x="335" y="353" width="5" height="130" fill="black"/>
<rect x="345" y="353" width="5" height="130" fill="black"/>
<rect x="355" y="353" width="5" height="130" fill="black"/>
<rect x="364" y="353" width="5" height="130" fill="black"/>
<rect x="374" y="353" width="5" height="130" fill="black"/>
<rect x="384" y="353" width="5" height="130" fill="black"/>
<rect x="394" y="353" width="5" height="130" fill="black"/>
<rect x="404" y="353" width="5" height="130" fill="black"/>
<rect x="413" y="353" width="5" height="130" fill="black"/>
<rect x="423" y="353" width="5" height="130" fill="black"/>
<rect x="433" y="353" width="5" height="130" fill="black"/>
<path d="M175 156H253V274L232 345V481.5L253 514H175L157 496V173.5L175 156Z" fill="#656565"/>
<path d="M419 156H468.468L512 197.23V496.904L495.181 514H419L438 481.5V342L419 279.5V156Z" fill="#656565"/>
<path d="M229.75 274H440.75V353H229.75V274Z" fill="#656565"/>
<path d="M358.008 259.019L356 257L356 168.5L358.009 167.151L398.189 167.151L399.655 168.5L399.655 257L398.187 259.018L358.008 259.019Z" fill="#656565"/>
<path d="M230 483H441V514H230V483Z" fill="#656565"/>
<circle cx="335" cy="335" r="330" stroke="#565656" stroke-width="10"/>
</svg>
